{"title":"Marmaduke 2010 DVDrip Dutch Klam","uid":6986617,"size":1681470379,"categoryP":"video","categoryS":"movies","magnet":"?xt=urn:btih:c387633359b3d9c22dd36389b17e02e484a4b7f8&amp;dn=Marmaduke+2010+DVDrip+Dutch+Klam&amp;tr=udp%3A%2F%2Ftracker.openbittorrent.com%3A80&amp;tr=udp%3A%2F%2Fopen.demonii.com%3A1337&amp;tr=udp%3A%2F%2Ftracker.coppersurfer.tk%3A6969&amp;tr=udp%3A%2F%2Fexodus.desync.com%3A6969","seeders":0,"leechers":1,"uploader":"Klambake","files":-1,"time":1327592255,"description":"Nederlands gesproken,\nWith: 'Marmaduke' (Owen Wilson) is de Deense Dog van de Winslow familie. Wanneer de familie gaat verhuizen naar een andere buurt, nemen ze de grote loebas uiteraard mee. Eenmaal aangekomen zorgt de hond voor veel problemen. Marmaduke weet dat de tieners in het mensenleven het best moeilijk kunnen hebben. Hij laat met zijn verwoestende acties echter zien dat dit bij honden precies zo is.\n\nDutch spoken,\nA suburban family moves to a new neighborhood with their large yet lovable Great Dane, who has a tendency to wreak havoc in his own oblivious way. \n\n------------------------ Dutch Friends ------------------------\n---------------------------------------------------------------\n- Bezoek ook eens mijn vrienden op: &lt;a href=&quot; http://www.Film-Test.nl&quot; rel=&quot;nofollow&quot; target=&quot;_NEW&quot;&gt; http://www.Film-Test.nl&lt;/a&gt; --\n----- voor mijn Nederlandse Sync. ondertitels ---- en meer ----\n------- http://www.Film-Test.nl ---- voor Films en meer -------\n---------------------------------------------------------------\n\nGeneral:\n\nComplete name                    : Marmaduke\\Marmaduke.avi\nFormat                           : AVI\nFormat/Info                      : Audio Video Interleave\nFile size                        : 1.57 GiB\nDuration                         : 1h 24mn\nOverall bit rate                 : 2 652 Kbps\n\nVideo:\n\nFormat                           : MPEG-4 Visual\nFormat profile                   : Simple@L3\nFormat settings, BVOP            : No\nFormat settings, QPel            : No\nFormat settings, GMC             : No warppoints\nFormat settings, Matrix          : Default (H.263)\nCodec ID                         : XVID\nCodec ID/Hint                    : XviD\nDuration                         : 1h 24mn\nBit rate                         : 2 257 Kbps\nWidth                            : 720 pixels\nHeight                           : 304 pixels\nDisplay aspect ratio             : 2.35:1\nFrame rate                       : 25.000 fps\nColor space                      : YUV\nChroma subsampling               : 4:2:0\nBit depth                        : 8 bits\nScan type                        : Progressive\nCompression mode                 : Lossy\nBits/(Pixel*Frame)               : 0.412\nStream size                      : 1.33 GiB (85%)\nWriting library                  : XviD 1.1.2 (UTC 2006-11-01)\n\nAudio:\n\nFormat                           : AC-3\nFormat/Info                      : Audio Coding 3\nMode extension                   : CM (complete main)\nCodec ID                         : 2000\nDuration                         : 1h 24mn\nBit rate mode                    : Constant\nBit rate                         : 384 Kbps\nChannel(s)                       : 6 channels\nChannel positions                : Front: L C R, Side: L R, LFE\nSampling rate                    : 48.0 KHz\nBit depth                        : 16 bits\nCompression mode                 : Lossy\nStream size                      : 232 MiB (14%)\nAlignment                        : Aligned on interleaves\nInterleave, duration             : 32 ms (0.80 video frame)\nInterleave, preload duration     : 544 ms\n\n","torrent":{"xt":"urn:btih:c387633359b3d9c22dd36389b17e02e484a4b7f8","amp;dn":"Marmaduke+2010+DVDrip+Dutch+Klam","amp;tr":["udp%3A%2F%2Ftracker.openbittorrent.com%3A80","udp%3A%2F%2Fopen.demonii.com%3A1337","udp%3A%2F%2Ftracker.coppersurfer.tk%3A6969","udp%3A%2F%2Fexodus.desync.com%3A6969"],"infoHash":"c387633359b3d9c22dd36389b17e02e484a4b7f8","infoHashBuffer":{"type":"Buffer","data":[195,135,99,51,89,179,217,194,45,211,99,137,177,126,2,228,132,164,183,248]},"announce":[],"urlList":[]}}